<svg xmlns="http://www.w3.org/2000/svg" viewBox="0 0 400 250" fill="none">
  <rect width="400" height="250" rx="12" fill="#FFFFFF" filter="drop-shadow(0px 4px 20px rgba(0, 0, 0, 0.1))"/>
  <text x="30" y="40" font-family="Arial" font-size="16" font-weight="bold" fill="#424242">Donation Drive Program</text>
  <text x="30" y="60" font-family="Arial" font-size="12" fill="#9E9E9E">January 1, 2024 - June 30, 2024</text>
  
  <text x="30" y="100" font-family="Arial" font-size="12" fill="#9E9E9E">Received Amount</text>
  <text x="30" y="125" font-family="Arial" font-size="20" font-weight="bold" fill="#424242">$87,593</text>
  
  <text x="150" y="100" font-family="Arial" font-size="12" fill="#9E9E9E">Target Amount</text>
  <text x="150" y="125" font-family="Arial" font-size="20" font-weight="bold" fill="#424242">$90,000</text>
  
  <text x="270" y="100" font-family="Arial" font-size="12" fill="#9E9E9E">Remaining</text>
  <text x="270" y="125" font-family="Arial" font-size="20" font-weight="bold" fill="#424242">$2,502</text>
  
  <path d="M50 200 L350 200" stroke="#E0E0E0" stroke-width="1"/>
  <path d="M50 180 L350 180" stroke="#E0E0E0" stroke-width="1"/>
  <path d="M50 160 L350 160" stroke="#E0E0E0" stroke-width="1"/>
  <path d="M50 220 L350 220" stroke="#E0E0E0" stroke-width="1"/>
  
  <path d="M50 200 L80 190 L110 195 L140 180 L170 175 L200 170 L230 165 L260 160 L290 155 L320 150 L350 145" stroke="#2E7D32" stroke-width="2"/>
  <circle cx="50" cy="200" r="3" fill="#2E7D32"/>
  <circle cx="80" cy="190" r="3" fill="#2E7D32"/>
  <circle cx="110" cy="195" r="3" fill="#2E7D32"/>
  <circle cx="140" cy="180" r="3" fill="#2E7D32"/>
  <circle cx="170" cy="175" r="3" fill="#2E7D32"/>
  <circle cx="200" cy="170" r="3" fill="#2E7D32"/>
  <circle cx="230" cy="165" r="3" fill="#2E7D32"/>
  <circle cx="260" cy="160" r="3" fill="#2E7D32"/>
  <circle cx="290" cy="155" r="3" fill="#2E7D32"/>
  <circle cx="320" cy="150" r="3" fill="#2E7D32"/>
  <circle cx="350" cy="145" r="3" fill="#2E7D32"/>
</svg>
